<svg width="48" height="48" viewBox="0 0 48 48" fill="none" xmlns="http://www.w3.org/2000/svg">
<rect width="48" height="48" rx="10" fill="#F1F1F1"/>
<path fill-rule="evenodd" clip-rule="evenodd" d="M19.8773 14.06C20.9436 14.0109 21.2836 14 24 14C26.7164 14 27.0564 14.0118 28.1218 14.06C29.1873 14.1082 29.9145 14.2782 30.5509 14.5245C31.2173 14.7764 31.8218 15.17 32.3218 15.6791C32.8309 16.1782 33.2236 16.7818 33.4745 17.4491C33.7218 18.0855 33.8909 18.8127 33.94 19.8764C33.9891 20.9445 34 21.2845 34 24C34 26.7164 33.9882 27.0564 33.94 28.1227C33.8918 29.1864 33.7218 29.9136 33.4745 30.55C33.2236 31.2174 32.8303 31.822 32.3218 32.3218C31.8218 32.8309 31.2173 33.2236 30.5509 33.4745C29.9145 33.7218 29.1873 33.8909 28.1236 33.94C27.0564 33.9891 26.7164 34 24 34C21.2836 34 20.9436 33.9882 19.8773 33.94C18.8136 33.8918 18.0864 33.7218 17.45 33.4745C16.7827 33.2236 16.178 32.8302 15.6782 32.3218C15.1694 31.8224 14.7757 31.2181 14.5245 30.5509C14.2782 29.9145 14.1091 29.1873 14.06 28.1236C14.0109 27.0555 14 26.7155 14 24C14 21.2836 14.0118 20.9436 14.06 19.8782C14.1082 18.8127 14.2782 18.0855 14.5245 17.4491C14.7761 16.7819 15.1701 16.1776 15.6791 15.6782C16.1782 15.1695 16.7822 14.7759 17.4491 14.5245C18.0855 14.2782 18.8136 14.1091 19.8773 14.06ZM28.0409 15.86C26.9864 15.8118 26.67 15.8018 24 15.8018C21.33 15.8018 21.0136 15.8118 19.9591 15.86C18.9836 15.9045 18.4545 16.0673 18.1018 16.2045C17.6355 16.3864 17.3018 16.6018 16.9518 16.9518C16.62 17.2746 16.3647 17.6675 16.2045 18.1018C16.0673 18.4545 15.9045 18.9836 15.86 19.9591C15.8118 21.0136 15.8018 21.33 15.8018 24C15.8018 26.67 15.8118 26.9864 15.86 28.0409C15.9045 29.0164 16.0673 29.5455 16.2045 29.8982C16.3645 30.3318 16.62 30.7255 16.9518 31.0482C17.2745 31.38 17.6682 31.6355 18.1018 31.7955C18.4545 31.9327 18.9836 32.0955 19.9591 32.14C21.0136 32.1882 21.3291 32.1982 24 32.1982C26.6709 32.1982 26.9864 32.1882 28.0409 32.14C29.0164 32.0955 29.5455 31.9327 29.8982 31.7955C30.3645 31.6136 30.6982 31.3982 31.0482 31.0482C31.38 30.7255 31.6355 30.3318 31.7955 29.8982C31.9327 29.5455 32.0955 29.0164 32.14 28.0409C32.1882 26.9864 32.1982 26.67 32.1982 24C32.1982 21.33 32.1882 21.0136 32.14 19.9591C32.0955 18.9836 31.9327 18.4545 31.7955 18.1018C31.6136 17.6355 31.3982 17.3018 31.0482 16.9518C30.7254 16.6201 30.3325 16.3647 29.8982 16.2045C29.5455 16.0673 29.0164 15.9045 28.0409 15.86ZM22.7227 27.0827C23.4361 27.3797 24.2303 27.4197 24.9699 27.1961C25.7095 26.9725 26.3485 26.499 26.7778 25.8566C27.2071 25.2142 27.4001 24.4426 27.3237 23.6737C27.2473 22.9049 26.9064 22.1863 26.3591 21.6409C26.0102 21.2923 25.5884 21.0253 25.1239 20.8592C24.6595 20.6932 24.164 20.6321 23.6732 20.6806C23.1823 20.729 22.7083 20.8856 22.2853 21.1392C21.8622 21.3928 21.5007 21.737 21.2266 22.1471C20.9526 22.5572 20.7729 23.023 20.7005 23.5109C20.628 23.9988 20.6647 24.4966 20.8078 24.9687C20.9508 25.4407 21.1968 25.8751 21.5279 26.2407C21.8591 26.6062 22.2671 26.8938 22.7227 27.0827ZM20.3655 20.3655C20.8428 19.8882 21.4094 19.5095 22.033 19.2512C22.6566 18.9929 23.325 18.86 24 18.86C24.675 18.86 25.3434 18.9929 25.967 19.2512C26.5906 19.5095 27.1573 19.8882 27.6345 20.3655C28.1118 20.8428 28.4905 21.4094 28.7488 22.033C29.0071 22.6566 29.14 23.325 29.14 24C29.14 24.675 29.0071 25.3434 28.7488 25.967C28.4905 26.5906 28.1118 27.1573 27.6345 27.6345C26.6706 28.5985 25.3632 29.14 24 29.14C22.6368 29.14 21.3294 28.5985 20.3655 27.6345C19.4015 26.6706 18.86 25.3632 18.86 24C18.86 22.6368 19.4015 21.3294 20.3655 20.3655ZM30.28 19.6255C30.3983 19.5139 30.493 19.3797 30.5585 19.2309C30.624 19.0821 30.6589 18.9216 30.6613 18.759C30.6637 18.5964 30.6334 18.435 30.5723 18.2844C30.5111 18.1337 30.4204 17.9968 30.3054 17.8819C30.1904 17.7669 30.0536 17.6761 29.9029 17.615C29.7522 17.5539 29.5908 17.5236 29.4282 17.526C29.2657 17.5284 29.1052 17.5633 28.9564 17.6288C28.8076 17.6943 28.6734 17.789 28.5618 17.9073C28.3448 18.1373 28.226 18.4428 28.2306 18.759C28.2352 19.0752 28.3629 19.3772 28.5865 19.6008C28.8101 19.8244 29.1121 19.952 29.4282 19.9566C29.7444 19.9612 30.05 19.8424 30.28 19.6255Z" fill="url(#paint0_linear_6_1449)"/>
<defs>
<linearGradient id="paint0_linear_6_1449" x1="24" y1="14" x2="24" y2="34" gradientUnits="userSpaceOnUse">
<stop stop-color="#046BE3"/>
<stop offset="0.130208" stop-color="#D726BB"/>
<stop offset="0.463542" stop-color="#FF0474"/>
<stop offset="0.739583" stop-color="#FE7C01"/>
<stop offset="1" stop-color="#FFD169"/>
</linearGradient>
</defs>
</svg>
