<svg width="64" height="65" viewBox="0 0 64 65" fill="none" xmlns="http://www.w3.org/2000/svg">
<rect x="0.5" y="1" width="63" height="63" rx="31.5" stroke="white"/>
<g clip-path="url(#clip0_7_328)">
<path d="M32.635 44.1914C32.6352 44.1911 32.6356 44.1909 32.6358 44.1905L37.5108 39.2919C37.8761 38.9249 37.8747 38.3314 37.5077 37.9661C37.1407 37.6008 36.5471 37.6022 36.1818 37.9692L32.9088 41.2581L32.9088 21.4039C32.9088 20.8861 32.4891 20.4664 31.9713 20.4664C31.4536 20.4664 31.0338 20.8861 31.0338 21.4039L31.0338 41.2581L27.7608 37.9692C27.3956 37.6023 26.802 37.6009 26.435 37.9661C26.068 38.3314 26.0667 38.925 26.4318 39.292L31.3068 44.1906C31.3071 44.1909 31.3075 44.1911 31.3077 44.1914C31.6742 44.5586 32.2697 44.5574 32.635 44.1914Z" fill="white"/>
</g>
<defs>
<clipPath id="clip0_7_328">
<rect width="24" height="24" fill="white" transform="matrix(0 1 -1 0 43.9713 20.4665)"/>
</clipPath>
</defs>
</svg>
