<svg width="48" height="48" viewBox="0 0 48 48" fill="none" xmlns="http://www.w3.org/2000/svg">
<rect width="48" height="48" rx="10" fill="#F1F1F1"/>
<path d="M15.3749 22.3185C20.7436 19.9194 24.3236 18.3378 26.1148 17.5736C31.2292 15.3918 32.2919 15.0128 32.9846 15.0001C33.1369 14.9975 33.4776 15.0362 33.6982 15.2199C33.8845 15.3749 33.9358 15.5844 33.9603 15.7314C33.9848 15.8784 34.0154 16.2133 33.9911 16.475C33.714 19.4617 32.5147 26.7098 31.9046 30.055C31.6465 31.4705 31.1382 31.9451 30.6461 31.9916C29.5766 32.0925 28.7645 31.2667 27.7287 30.5702C26.1078 29.4805 25.1921 28.8021 23.6188 27.7387C21.8005 26.5097 22.9792 25.8343 24.0154 24.7304C24.2866 24.4415 28.9987 20.0456 29.0899 19.6468C29.1013 19.5969 29.1119 19.411 29.0042 19.3128C28.8965 19.2147 28.7376 19.2482 28.6229 19.2749C28.4604 19.3128 25.871 21.0681 20.8549 24.5411C20.1199 25.0587 19.4542 25.3109 18.8577 25.2977C18.2001 25.2831 16.9353 24.9164 15.995 24.6029C14.8417 24.2184 13.925 24.0151 14.0048 23.362C14.0464 23.0219 14.5031 22.674 15.3749 22.3185Z" fill="url(#paint0_linear_6_1446)"/>
<defs>
<linearGradient id="paint0_linear_6_1446" x1="24" y1="15" x2="24" y2="32" gradientUnits="userSpaceOnUse">
<stop stop-color="#37AFE3"/>
<stop offset="1" stop-color="#1E94D3"/>
</linearGradient>
</defs>
</svg>
