<svg width="48" height="48" viewBox="0 0 48 48" fill="none" xmlns="http://www.w3.org/2000/svg">
<rect width="48" height="48" rx="10" fill="#F1F1F1"/>
<path fill-rule="evenodd" clip-rule="evenodd" d="M31 16.875C29.125 15 26.625 14 24 14C18.5 14 14 18.5 14 24C14 25.75 14.5 27.5 15.375 29L14 34L19.25 32.625C20.75 33.375 22.375 33.875 24 33.875C29.5 33.875 34 29.375 34 23.875C34 21.25 32.875 18.75 31 16.875ZM24 32.25C22.5 32.25 21 31.875 19.75 31.125L19.5 31L16.375 31.875L17.25 28.875L17 28.5C16.125 27.125 15.75 25.625 15.75 24.125C15.75 19.625 19.5 15.875 24 15.875C26.25 15.875 28.25 16.75 29.875 18.25C31.5 19.875 32.25 21.875 32.25 24.125C32.25 28.5 28.625 32.25 24 32.25ZM28.5 26C28.25 25.875 27 25.25 26.75 25.25C26.5 25.125 26.375 25.125 26.25 25.375C26.125 25.625 25.625 26.125 25.5 26.375C25.375 26.5 25.25 26.5 25 26.5C24.75 26.375 24 26.125 23 25.25C22.25 24.625 21.75 23.75 21.625 23.5C21.5 23.25 21.625 23.125 21.75 23C21.875 22.875 22 22.75 22.125 22.625C22.25 22.5 22.25 22.375 22.375 22.25C22.5 22.125 22.375 22 22.375 21.875C22.375 21.75 21.875 20.5 21.625 20C21.5 19.625 21.25 19.625 21.125 19.625C21 19.625 20.875 19.625 20.625 19.625C20.5 19.625 20.25 19.625 20 19.875C19.75 20.125 19.125 20.75 19.125 22C19.125 23.25 20 24.375 20.125 24.625C20.25 24.75 21.875 27.375 24.375 28.375C26.5 29.25 26.875 29 27.375 29C27.875 29 28.875 28.375 29 27.875C29.25 27.25 29.25 26.75 29.125 26.75C29 26.125 28.75 26.125 28.5 26Z" fill="url(#paint0_linear_6_1448)"/>
<defs>
<linearGradient id="paint0_linear_6_1448" x1="24" y1="14" x2="24" y2="34" gradientUnits="userSpaceOnUse">
<stop stop-color="#57D163"/>
<stop offset="1" stop-color="#23B33A"/>
</linearGradient>
</defs>
</svg>
